<?xml version="1.0" encoding="UTF-8"?>
<svg width="123px" height="42px" viewBox="0 0 123 42" version="1.1" xmlns="http://www.w3.org/2000/svg" xmlns:xlink="http://www.w3.org/1999/xlink">
    <!-- Generator: Sketch 49.3 (51167) - http://www.bohemiancoding.com/sketch -->
    <title>Slice</title>
    <desc>Created with Sketch.</desc>
    <defs></defs>
    <g id="Page-1" stroke="none" stroke-width="1" fill="none" fill-rule="evenodd">
        <g id="Group-2" transform="translate(-41.000000, -24.000000)" fill="#FFFFFF">
            <path d="M67.406808,43.2639509 C67.6117942,43.0589647 67.7142857,42.8162216 67.7142857,42.5357143 C67.7142857,42.2552069 67.6117942,42.0124638 67.406808,41.8074777 C67.2018219,41.6024915 66.9590788,41.5 66.6785714,41.5 C64.8229074,41.5 63.1075228,41.7670174 61.5323661,42.3010603 C59.9572094,42.8351031 58.5573908,43.5579382 57.3328683,44.4695871 C56.1083458,45.381236 54.8379902,46.5652829 53.5217634,48.0217634 C53.3167772,48.248327 53.2142857,48.4910701 53.2142857,48.75 C53.2142857,49.0305074 53.3167772,49.2732505 53.5217634,49.4782366 C53.7267495,49.6832228 53.9694926,49.7857143 54.25,49.7857143 C54.5089299,49.7857143 54.751673,49.6832228 54.9782366,49.4782366 C55.2695327,49.2193067 55.6687103,48.8363121 56.1757813,48.3292411 C56.6828522,47.8221701 57.0442698,47.4661469 57.2600446,47.2611607 C58.7381026,45.9233564 60.1864698,44.9739611 61.6051897,44.4129464 C63.0239096,43.8519317 64.7150199,43.5714286 66.6785714,43.5714286 C66.9590788,43.5714286 67.2018219,43.468937 67.406808,43.2639509 Z" id="ï¬"></path>
            <text id="Leaf" font-family="Nunito-Bold, Nunito" font-size="32" font-weight="bold">
                <tspan x="90" y="55">Diverse</tspan>
            </text>
            <path d="M49.528584,55.8550158 C49.681284,55.7689992 49.8363762,55.6447084 49.9938616,55.4821429 C50.3283127,55.136903 50.611513,54.7593026 50.843471,54.3493304 C51.075429,53.9393581 51.3181721,53.5617577 51.5717076,53.2165179 C51.8252431,52.871278 52.0383176,52.6986607 52.2109375,52.6986607 C52.4590786,52.6986607 52.9769306,52.8982495 53.7645089,53.297433 C54.5520873,53.6966166 55.0267849,53.9231768 55.1886161,53.9771205 C56.6774628,54.4841915 58.2202301,54.7377232 59.8169643,54.7377232 C62.233643,54.7377232 64.5963426,54.1551398 66.9051339,52.9899554 C69.267869,51.8139822 71.1963281,50.3683121 72.6905692,48.6529018 C74.1848103,46.9374914 75.180057,44.8714779 75.6763393,42.4547991 C75.8921142,41.3975022 76,40.3564039 76,39.3314732 C76,38.9215009 75.9568457,38.403649 75.8705357,37.7779018 C75.7842258,37.1521546 75.6547628,36.4832625 75.4821429,35.7712054 C75.4773374,35.7513829 75.4724672,35.731644 75.4675321,35.7119887 C77.0717848,38.256411 78,41.2698073 78,44.5 C78,53.6126984 70.6126984,61 61.5,61 C56.7868703,61 52.5352853,59.0238923 49.528584,55.8550158 Z M47.3707548,53.0261465 C45.8660032,50.5378667 45,47.6200663 45,44.5 C45,35.3873016 52.3873016,28 61.5,28 C66.24747,28 70.526645,30.0050088 73.5369387,33.21444 C73.2920614,33.2165721 73.069278,33.240795 72.8685826,33.2871094 C72.6582021,33.3356587 72.4613104,33.4219674 72.2779018,33.5460379 C72.0944931,33.6701085 71.9488473,33.7779943 71.8409598,33.8696987 C71.7330724,33.961403 71.5739408,34.1124431 71.3635603,34.3228237 L70.8861607,34.8002232 C70.4653997,35.1994068 69.8531476,35.5041842 69.0493862,35.7145647 C68.2456247,35.9249452 67.3636581,36.0544082 66.4034598,36.1029576 C65.4432616,36.1515069 64.4803806,36.1838727 63.5147879,36.2000558 C62.5491953,36.2162389 61.58092,36.2647875 60.609933,36.3457031 C59.638946,36.4266187 58.8567738,36.5641731 58.2633929,36.7583705 C57.0874197,37.1467653 55.9869843,37.6619202 54.9620536,38.3038504 C53.9371229,38.9457807 53.0173962,39.6955872 52.202846,40.5532924 C51.3882958,41.4109976 50.7463751,42.4062443 50.2770647,43.5390625 C49.8077543,44.6718807 49.5731027,45.8586247 49.5731027,47.0993304 C49.5731027,47.6711338 49.6216513,48.2321401 49.71875,48.7823661 C49.7403275,48.8902535 49.8266361,49.1276023 49.9776786,49.4944196 C50.128721,49.861237 50.2042411,50.06622 50.2042411,50.109375 C50.2042411,50.3143611 50.037018,50.5732871 49.702567,50.8861607 C49.3681159,51.1990343 49.0013041,51.5011146 48.6021205,51.7924107 C48.202937,52.0837068 47.8361252,52.4370329 47.5016741,52.8523996 C47.4547413,52.9106871 47.4111015,52.9686027 47.3707548,53.0261465 Z" id="Combined-Shape"></path>
        </g>
    </g>
</svg>